<svg width="14" height="18" viewBox="0 0 14 18" fill="none" xmlns="http://www.w3.org/2000/svg">
<path d="M0 17.7188C0 16.4925 0.309375 15.3562 0.928125 14.31C1.52438 13.2975 2.32875 12.4931 3.34125 11.8969C4.3875 11.2781 5.52375 10.9687 6.75 10.9687C7.97625 10.9687 9.1125 11.2781 10.1588 11.8969C11.1713 12.4931 11.9756 13.2975 12.5719 14.31C13.1906 15.3562 13.5 16.4925 13.5 17.7188H11.8125C11.8125 16.8075 11.5819 15.9581 11.1206 15.1706C10.6706 14.4056 10.0631 13.7981 9.29813 13.3481C8.51062 12.8869 7.66125 12.6562 6.75 12.6562C5.83875 12.6562 4.98938 12.8869 4.20188 13.3481C3.43688 13.7981 2.82938 14.4056 2.37937 15.1706C1.91813 15.9581 1.6875 16.8075 1.6875 17.7188H0ZM6.75 10.125C5.8275 10.125 4.97813 9.89437 4.20188 9.43312C3.43688 8.98312 2.82938 8.37562 2.37937 7.61062C1.91813 6.83437 1.6875 5.985 1.6875 5.0625C1.6875 4.14 1.91813 3.29062 2.37937 2.51437C2.82938 1.74937 3.43688 1.14187 4.20188 0.691874C4.97813 0.230625 5.8275 0 6.75 0C7.6725 0 8.52188 0.230625 9.29813 0.691874C10.0631 1.14187 10.6706 1.74937 11.1206 2.51437C11.5819 3.29062 11.8125 4.14 11.8125 5.0625C11.8125 5.985 11.5819 6.83437 11.1206 7.61062C10.6706 8.37562 10.0631 8.98312 9.29813 9.43312C8.52188 9.89437 7.6725 10.125 6.75 10.125ZM6.75 8.4375C7.3575 8.4375 7.92 8.28562 8.4375 7.98187C8.955 7.67812 9.36563 7.2675 9.66938 6.75C9.97313 6.2325 10.125 5.67 10.125 5.0625C10.125 4.455 9.97313 3.8925 9.66938 3.375C9.36563 2.8575 8.955 2.44687 8.4375 2.14312C7.92 1.83937 7.3575 1.6875 6.75 1.6875C6.1425 1.6875 5.58 1.83937 5.0625 2.14312C4.545 2.44687 4.13438 2.8575 3.83063 3.375C3.52688 3.8925 3.375 4.455 3.375 5.0625C3.375 5.67 3.52688 6.2325 3.83063 6.75C4.13438 7.2675 4.545 7.67812 5.0625 7.98187C5.58 8.28562 6.1425 8.4375 6.75 8.4375Z" fill="white"/>
</svg>
