<svg width="17" height="17" viewBox="0 0 17 17" fill="none" xmlns="http://www.w3.org/2000/svg">
<path d="M8.4375 7.59375C9.2025 7.59375 9.90844 7.78219 10.5553 8.15906C11.2022 8.53594 11.7141 9.04781 12.0909 9.69469C12.4678 10.3416 12.6563 11.0475 12.6563 11.8125V16.875H10.9688V11.8125C10.9688 11.3737 10.8619 10.9659 10.6481 10.5891C10.4344 10.2122 10.1475 9.90844 9.7875 9.67781C9.4275 9.44719 9.02813 9.315 8.58938 9.28125H8.4375C7.99875 9.28125 7.59094 9.38812 7.21406 9.60187C6.83719 9.81562 6.53344 10.1025 6.30281 10.4625C6.07219 10.8225 5.94 11.2219 5.90625 11.6606V16.875H4.21875V11.8125C4.21875 11.0475 4.40719 10.3416 4.78406 9.69469C5.16094 9.04781 5.67281 8.53594 6.31969 8.15906C6.96656 7.78219 7.6725 7.59375 8.4375 7.59375ZM2.95312 10.125C3.18938 10.125 3.42 10.1531 3.645 10.2094C3.49875 10.6369 3.40875 11.0756 3.375 11.5256V11.88C3.27375 11.8462 3.1725 11.8238 3.07125 11.8125H2.95312C2.62688 11.8125 2.34281 11.9222 2.10094 12.1416C1.85906 12.3609 1.72125 12.6337 1.6875 12.96V13.0781V16.875H0V13.0781C0 12.5381 0.132188 12.0431 0.396563 11.5931C0.660938 11.1431 1.01813 10.7859 1.46813 10.5216C1.91813 10.2572 2.41313 10.125 2.95312 10.125ZM13.9219 10.125C14.4619 10.125 14.9569 10.2572 15.4069 10.5216C15.8569 10.7859 16.2141 11.1431 16.4784 11.5931C16.7428 12.0431 16.875 12.5381 16.875 13.0781V16.875H15.1875V13.0781C15.1875 12.7519 15.0778 12.4678 14.8584 12.2259C14.6391 11.9841 14.3663 11.8462 14.04 11.8125H13.9219C13.7756 11.8125 13.635 11.835 13.5 11.88V11.8125C13.5 11.2612 13.4156 10.7269 13.2469 10.2094C13.4606 10.1531 13.6856 10.125 13.9219 10.125ZM2.95312 5.0625C3.33563 5.0625 3.68719 5.15812 4.00781 5.34937C4.32844 5.54062 4.58438 5.79656 4.77563 6.11719C4.96688 6.43781 5.0625 6.78937 5.0625 7.17188C5.0625 7.55437 4.96688 7.90594 4.77563 8.22656C4.58438 8.54719 4.32844 8.80312 4.00781 8.99437C3.68719 9.18562 3.33563 9.28125 2.95312 9.28125C2.57063 9.28125 2.21906 9.18562 1.89844 8.99437C1.57781 8.80312 1.32188 8.54719 1.13063 8.22656C0.939375 7.90594 0.84375 7.55437 0.84375 7.17188C0.84375 6.78937 0.939375 6.43781 1.13063 6.11719C1.32188 5.79656 1.57781 5.54062 1.89844 5.34937C2.21906 5.15812 2.57063 5.0625 2.95312 5.0625ZM13.9219 5.0625C14.3044 5.0625 14.6559 5.15812 14.9766 5.34937C15.2972 5.54062 15.5531 5.79656 15.7444 6.11719C15.9356 6.43781 16.0312 6.78937 16.0312 7.17188C16.0312 7.55437 15.9356 7.90594 15.7444 8.22656C15.5531 8.54719 15.2972 8.80312 14.9766 8.99437C14.6559 9.18562 14.3044 9.28125 13.9219 9.28125C13.5394 9.28125 13.1878 9.18562 12.8672 8.99437C12.5466 8.80312 12.2906 8.54719 12.0994 8.22656C11.9081 7.90594 11.8125 7.55437 11.8125 7.17188C11.8125 6.78937 11.9081 6.43781 12.0994 6.11719C12.2906 5.79656 12.5466 5.54062 12.8672 5.34937C13.1878 5.15812 13.5394 5.0625 13.9219 5.0625ZM2.95312 6.75C2.84063 6.75 2.74219 6.79219 2.65781 6.87656C2.57344 6.96094 2.53125 7.05937 2.53125 7.17188C2.53125 7.28437 2.57344 7.38281 2.65781 7.46719C2.74219 7.55156 2.84063 7.59375 2.95312 7.59375C3.06563 7.59375 3.16406 7.55156 3.24844 7.46719C3.33281 7.38281 3.375 7.28437 3.375 7.17188C3.375 7.05937 3.33281 6.96094 3.24844 6.87656C3.16406 6.79219 3.06563 6.75 2.95312 6.75ZM13.9219 6.75C13.8094 6.75 13.7109 6.79219 13.6266 6.87656C13.5422 6.96094 13.5 7.05937 13.5 7.17188C13.5 7.28437 13.5422 7.38281 13.6266 7.46719C13.7109 7.55156 13.8094 7.59375 13.9219 7.59375C14.0344 7.59375 14.1328 7.55156 14.2172 7.46719C14.3016 7.38281 14.3438 7.28437 14.3438 7.17188C14.3438 7.05937 14.3016 6.96094 14.2172 6.87656C14.1328 6.79219 14.0344 6.75 13.9219 6.75ZM8.4375 0C9.045 0 9.6075 0.151875 10.125 0.455624C10.6425 0.759375 11.0531 1.17 11.3569 1.6875C11.6606 2.205 11.8125 2.7675 11.8125 3.375C11.8125 3.9825 11.6606 4.545 11.3569 5.0625C11.0531 5.58 10.6425 5.99062 10.125 6.29437C9.6075 6.59812 9.045 6.75 8.4375 6.75C7.83 6.75 7.2675 6.59812 6.75 6.29437C6.2325 5.99062 5.82188 5.58 5.51813 5.0625C5.21438 4.545 5.0625 3.9825 5.0625 3.375C5.0625 2.7675 5.21438 2.205 5.51813 1.6875C5.82188 1.17 6.2325 0.759375 6.75 0.455624C7.2675 0.151875 7.83 0 8.4375 0ZM8.4375 1.6875C8.13375 1.6875 7.8525 1.76344 7.59375 1.91531C7.335 2.06719 7.12969 2.2725 6.97781 2.53125C6.82594 2.79 6.75 3.07125 6.75 3.375C6.75 3.67875 6.82594 3.96 6.97781 4.21875C7.12969 4.4775 7.335 4.68281 7.59375 4.83469C7.8525 4.98656 8.13375 5.0625 8.4375 5.0625C8.74125 5.0625 9.0225 4.98656 9.28125 4.83469C9.54 4.68281 9.74531 4.4775 9.89719 4.21875C10.0491 3.96 10.125 3.67875 10.125 3.375C10.125 3.07125 10.0491 2.79 9.89719 2.53125C9.74531 2.2725 9.54 2.06719 9.28125 1.91531C9.0225 1.76344 8.74125 1.6875 8.4375 1.6875Z" fill="white"/>
</svg>
