<svg width="21" height="21" viewBox="0 0 21 21" fill="none" xmlns="http://www.w3.org/2000/svg">
<path d="M7 12.25C9.8995 12.25 12.25 9.8995 12.25 7C12.25 4.10051 9.8995 1.75 7 1.75C4.10051 1.75 1.75 4.10051 1.75 7C1.75 9.8995 4.10051 12.25 7 12.25Z" stroke="white" stroke-linecap="round" stroke-linejoin="round"/>
<path d="M15.8287 9.07373C16.6559 9.3821 17.3919 9.89407 17.9688 10.5623C18.5456 11.2305 18.9447 12.0334 19.129 12.8967C19.3133 13.76 19.277 14.6558 19.0234 15.5013C18.7698 16.3469 18.307 17.1148 17.678 17.7341C17.0489 18.3535 16.2739 18.8042 15.4245 19.0446C14.5751 19.285 13.6788 19.3073 12.8185 19.1095C11.9581 18.9117 11.1616 18.5002 10.5025 17.913C9.84333 17.3258 9.34292 16.5818 9.04749 15.75" stroke="white" stroke-linecap="round" stroke-linejoin="round"/>
<path d="M6.125 5.25H7V8.75" stroke="white" stroke-linecap="round" stroke-linejoin="round"/>
<path d="M14.6212 12.145L15.2337 12.7663L12.7662 15.2338" stroke="white" stroke-linecap="round" stroke-linejoin="round"/>
</svg>
