<svg width="18" height="18" viewBox="0 0 18 18" fill="none" xmlns="http://www.w3.org/2000/svg">
<path d="M9 14.625C8.0006 15.0918 6.6878 15.375 5.25 15.375C4.45056 15.375 3.68977 15.2874 3 15.1295C1.81371 14.8577 1.5 14.1597 1.5 13.0395V4.96048C1.5 4.22186 2.28002 3.71455 3 3.87945C3.68977 4.03744 4.45056 4.125 5.25 4.125C6.6878 4.125 8.0006 3.84177 9 3.375C9.99941 2.90823 11.3122 2.625 12.75 2.625C13.5494 2.625 14.3102 2.71256 15 2.87055C16.1863 3.14226 16.5 3.84027 16.5 4.96048V13.0395C16.5 13.7781 15.72 14.2855 15 14.1206C14.3102 13.9626 13.5494 13.875 12.75 13.875C11.3122 13.875 9.99941 14.1582 9 14.625Z" stroke="white" stroke-width="1.5"/>
<path d="M10.875 9C10.875 10.0355 10.0355 10.875 9 10.875C7.96447 10.875 7.125 10.0355 7.125 9C7.125 7.96447 7.96447 7.125 9 7.125C10.0355 7.125 10.875 7.96447 10.875 9Z" stroke="white" stroke-width="1.5"/>
<path d="M4.125 9.75L4.125 9.75674" stroke="white" stroke-width="2" stroke-linecap="round" stroke-linejoin="round"/>
<path d="M13.875 8.24414L13.875 8.25163" stroke="white" stroke-width="2" stroke-linecap="round" stroke-linejoin="round"/>
</svg>
