<svg width="21" height="21" viewBox="0 0 21 21" fill="none" xmlns="http://www.w3.org/2000/svg">
<path d="M12.25 8.344V6.125C12.25 5.19674 12.6187 4.3065 13.2751 3.65013C13.9315 2.99375 14.8217 2.625 15.75 2.625H17.0625C17.1785 2.625 17.2898 2.67109 17.3719 2.75314C17.4539 2.83519 17.5 2.94647 17.5 3.0625V4.375C17.5 5.30326 17.1313 6.1935 16.4749 6.84987C15.8185 7.50625 14.9283 7.875 14 7.875C13.0717 7.875 12.1815 8.24375 11.5251 8.90013C10.8687 9.5565 10.5 10.4467 10.5 11.375C10.5 13.125 11.375 14 11.375 15.75C11.375 16.6966 11.068 17.6177 10.5 18.375" stroke="white" stroke-linecap="round" stroke-linejoin="round"/>
<path d="M3.5 7.875C4.14999 7.38751 4.92289 7.09065 5.7321 7.01768C6.54131 6.94471 7.35485 7.09853 8.08156 7.46188C8.80827 7.82524 9.41945 8.38378 9.8466 9.07493C10.2737 9.76607 10.5 10.5625 10.5 11.375C9.85001 11.8625 9.07711 12.1594 8.2679 12.2323C7.45869 12.3053 6.64515 12.1515 5.91844 11.7881C5.19173 11.4248 4.58055 10.8662 4.1534 10.1751C3.72625 9.48393 3.5 8.68749 3.5 7.875Z" stroke="white" stroke-linecap="round" stroke-linejoin="round"/>
<path d="M4.375 18.375H16.625" stroke="white" stroke-linecap="round" stroke-linejoin="round"/>
</svg>
