<svg width="17" height="16" viewBox="0 0 17 16" fill="none" xmlns="http://www.w3.org/2000/svg">
<path d="M6.57716 7.12C6.88827 7.67111 7.26827 8.17111 7.71716 8.62C8.16605 9.06889 8.66605 9.44889 9.21716 9.76L9.80382 8.93333C9.9016 8.79111 10.0327 8.70222 10.1972 8.66667C10.3616 8.63111 10.5194 8.65333 10.6705 8.73333C11.6216 9.25778 12.6394 9.56 13.7238 9.64C13.8927 9.65778 14.0372 9.72889 14.1572 9.85333C14.2772 9.97778 14.3372 10.1289 14.3372 10.3067V13.28C14.3372 13.4489 14.2794 13.5978 14.1638 13.7267C14.0483 13.8556 13.906 13.9289 13.7372 13.9467C13.3816 13.9822 13.026 14 12.6705 14C11.266 14 9.92382 13.7289 8.64382 13.1867C7.40827 12.6622 6.31494 11.9244 5.36382 10.9733C4.41271 10.0222 3.67494 8.92889 3.15049 7.69333C2.60827 6.41333 2.33716 5.07111 2.33716 3.66667C2.33716 3.31111 2.35494 2.95556 2.39049 2.6C2.40827 2.43111 2.4816 2.28889 2.61049 2.17333C2.73938 2.05778 2.88827 2 3.05716 2H6.03049C6.20827 2 6.35938 2.06 6.48382 2.18C6.60827 2.3 6.67938 2.44444 6.69716 2.61333C6.77716 3.69778 7.07938 4.71556 7.60382 5.66667C7.68382 5.81778 7.70605 5.97556 7.67049 6.14C7.63494 6.30444 7.54605 6.43556 7.40382 6.53333L6.57716 7.12ZM4.89716 6.68L6.16382 5.77333C5.80827 5 5.56382 4.18667 5.43049 3.33333H3.67049V3.66667C3.67049 4.88445 3.90605 6.05333 4.37716 7.17333C4.83049 8.24889 5.47271 9.20222 6.30382 10.0333C7.13494 10.8644 8.08827 11.5067 9.16382 11.96C10.2838 12.4311 11.4527 12.6667 12.6705 12.6667H13.0038V10.9067C12.1505 10.7733 11.3372 10.5289 10.5638 10.1733L9.65716 11.44C9.29271 11.2978 8.93716 11.1289 8.59049 10.9333L8.55049 10.92C7.9016 10.5467 7.31049 10.0933 6.77716 9.56C6.24382 9.02667 5.79049 8.43556 5.41716 7.78667L5.40382 7.74667C5.20827 7.4 5.03938 7.04444 4.89716 6.68Z" fill="#2563EB"/>
</svg>
