<svg width="16" height="16" viewBox="0 0 16 16" fill="none" xmlns="http://www.w3.org/2000/svg">
<path fill-rule="evenodd" clip-rule="evenodd" d="M0.799988 4.5999C0.799988 3.38488 1.78496 2.3999 2.99999 2.3999H13C14.215 2.3999 15.2 3.38488 15.2 4.5999V11.3999C15.2 12.6149 14.215 13.5999 13 13.5999H2.99999C1.78496 13.5999 0.799988 12.6149 0.799988 11.3999V4.5999ZM2.99999 3.5999C2.4477 3.5999 1.99999 4.04762 1.99999 4.5999V11.3999C1.99999 11.9522 2.4477 12.3999 2.99999 12.3999H13C13.5523 12.3999 14 11.9522 14 11.3999V4.5999C14 4.04762 13.5523 3.5999 13 3.5999H2.99999ZM3.34443 5.01163C3.56009 4.76004 3.93887 4.7309 4.19046 4.94655L7.99999 8.21186L11.8095 4.94655C12.0611 4.7309 12.4399 4.76004 12.6555 5.01163C12.8712 5.26323 12.8421 5.64201 12.5905 5.85766L8.39046 9.45766C8.16577 9.65026 7.83421 9.65026 7.60951 9.45766L3.40951 5.85766C3.15792 5.64201 3.12878 5.26323 3.34443 5.01163Z" fill="#16A34A"/>
</svg>
