<svg width="20" height="20" viewBox="0 0 20 20" fill="none" xmlns="http://www.w3.org/2000/svg">
<g clip-path="url(#clip0_9_1324)">
<path d="M15.0109 13.5981C14.3646 14.4746 13.5135 15.1794 12.5319 15.6509C11.5503 16.1224 10.4681 16.3463 9.38003 16.303C8.29192 16.2597 7.23098 15.9505 6.28997 15.4025C5.34897 14.8544 4.55654 14.0842 3.98197 13.1591C3.4074 12.2341 3.06819 11.1823 2.99399 10.0959C2.91978 9.00946 3.11285 7.92138 3.55631 6.92679C3.99977 5.93221 4.68011 5.06139 5.53787 4.39048C6.39562 3.71957 7.40467 3.269 8.47678 3.07815M16.1277 11.199C16.3318 10.3476 16.3662 9.46442 16.229 8.59977C16.0917 7.73511 15.7856 6.90595 15.3279 6.15962C14.8702 5.41329 14.27 4.76442 13.5616 4.25005C12.8532 3.73568 12.0503 3.36588 11.199 3.16177L9.64471 9.64472L16.1277 11.199Z" stroke="#0E9384" stroke-width="2" stroke-linecap="round" stroke-linejoin="round"/>
</g>
<defs>
<clipPath id="clip0_9_1324">
<rect width="16" height="16" fill="white" transform="translate(3.73029) rotate(13.4821)"/>
</clipPath>
</defs>
</svg>
