<svg width="16" height="16" viewBox="0 0 16 16" fill="none" xmlns="http://www.w3.org/2000/svg">
<path fill-rule="evenodd" clip-rule="evenodd" d="M5.40007 1.59912C5.73144 1.59913 6.00006 1.86776 6.00006 2.19913L6.00004 3.39913C6.00003 3.7305 5.7314 3.99913 5.40003 3.99912C5.06866 3.99912 4.80003 3.73048 4.80004 3.39911L4.80006 2.19911C4.80006 1.86774 5.0687 1.59912 5.40007 1.59912ZM10.6001 1.59912C10.9314 1.59913 11.2001 1.86776 11.2001 2.19913L11.2 3.39913C11.2 3.7305 10.9314 3.99913 10.6 3.99912C10.2687 3.99912 10 3.73048 10 3.39911L10.0001 2.19911C10.0001 1.86774 10.2687 1.59912 10.6001 1.59912ZM1.60004 4.6005C1.60004 3.38548 2.58501 2.4005 3.80004 2.4005C4.13141 2.4005 4.40004 2.66913 4.40004 3.0005C4.40004 3.33187 4.13141 3.6005 3.80004 3.6005C3.24775 3.6005 2.80004 4.04822 2.80004 4.6005V5.39912H13.2V4.6005C13.2 4.04822 12.7523 3.6005 12.2 3.6005C11.8687 3.6005 11.6 3.33187 11.6 3.0005C11.6 2.66913 11.8687 2.4005 12.2 2.4005C13.4151 2.4005 14.4 3.38548 14.4 4.6005V12.2005C14.4 13.4155 13.4151 14.4005 12.2 14.4005H3.80004C2.58501 14.4005 1.60004 13.4155 1.60004 12.2005V4.6005ZM13.2 6.59912H2.80004V12.2005C2.80004 12.7528 3.24775 13.2005 3.80004 13.2005H12.2C12.7523 13.2005 13.2 12.7528 13.2 12.2005V6.59912ZM6.40004 3.0005C6.40004 2.66913 6.66867 2.4005 7.00004 2.4005H9.00004C9.33141 2.4005 9.60004 2.66913 9.60004 3.0005C9.60004 3.33187 9.33141 3.6005 9.00004 3.6005H7.00004C6.66867 3.6005 6.40004 3.33187 6.40004 3.0005ZM6.40004 8.08526C6.40004 7.75389 6.66867 7.48526 7.00004 7.48526H9.00004C9.19884 7.48526 9.38474 7.58374 9.49642 7.74821C9.6081 7.91268 9.63106 8.12179 9.55773 8.30657L8.12916 11.9066C8.00694 12.2146 7.65816 12.3652 7.35016 12.243C7.04215 12.1207 6.89155 11.772 7.01377 11.464L8.11643 8.68526H7.00004C6.66867 8.68526 6.40004 8.41663 6.40004 8.08526Z" fill="#8B5CF6"/>
</svg>
