<svg width="16" height="16" viewBox="0 0 16 16" fill="none" xmlns="http://www.w3.org/2000/svg">
<g clip-path="url(#clip0_9_1331)">
<path d="M3.28664 3.28682L6.11331 6.11349M9.88666 9.88684L12.7133 12.7135M12.7133 3.28682L9.88666 6.11349L12.24 3.76017M3.28664 12.7135L6.11331 9.88684M14.6666 8.00016C14.6666 11.6821 11.6819 14.6668 7.99998 14.6668C4.31808 14.6668 1.33331 11.6821 1.33331 8.00016C1.33331 4.31826 4.31808 1.3335 7.99998 1.3335C11.6819 1.3335 14.6666 4.31826 14.6666 8.00016ZM10.6666 8.00016C10.6666 9.47292 9.47274 10.6668 7.99998 10.6668C6.52722 10.6668 5.33331 9.47292 5.33331 8.00016C5.33331 6.5274 6.52722 5.3335 7.99998 5.3335C9.47274 5.3335 10.6666 6.5274 10.6666 8.00016Z" stroke="#E04F16" stroke-width="2" stroke-linecap="round" stroke-linejoin="round"/>
</g>
<defs>
<clipPath id="clip0_9_1331">
<rect width="16" height="16" fill="white"/>
</clipPath>
</defs>
</svg>
