<svg width="20" height="20" viewBox="0 0 20 20" fill="none" xmlns="http://www.w3.org/2000/svg">
<path d="M17.9167 17.4993H16.6667V3.74935C16.6667 3.51925 16.4801 3.33268 16.25 3.33268C16.0199 3.33268 15.8333 3.51925 15.8333 3.74935V17.4993H13.3333V7.08268C13.3333 6.85258 13.1468 6.66602 12.9167 6.66602C12.6866 6.66602 12.5 6.85258 12.5 7.08268V17.4993H9.99999V10.416C9.99999 10.1859 9.81343 9.99935 9.58332 9.99935C9.35322 9.99935 9.16666 10.1859 9.16666 10.416V17.4993H6.66666V13.7493C6.66666 13.5192 6.48009 13.3327 6.24999 13.3327C6.01989 13.3327 5.83332 13.5192 5.83332 13.7493V17.4993H2.49999V2.08268C2.49999 1.85258 2.31343 1.66602 2.08332 1.66602C1.85322 1.66602 1.66666 1.85258 1.66666 2.08268V17.9165C1.66681 18.1465 1.85332 18.3328 2.08332 18.3327H17.9167C18.1468 18.3327 18.3333 18.1461 18.3333 17.916C18.3333 17.6859 18.1468 17.4993 17.9167 17.4993Z" fill="#EAB308"/>
</svg>
