<svg width="20" height="20" viewBox="0 0 20 20" fill="none" xmlns="http://www.w3.org/2000/svg">
<path d="M12.9167 9.58268H10.4167V5.41602C10.4167 5.18591 10.2301 4.99935 10 4.99935C9.76992 4.99935 9.58335 5.18591 9.58335 5.41602V9.99935C9.58335 9.9995 9.58335 9.99965 9.58335 9.99981C9.58351 10.2298 9.77002 10.4162 10 10.416H12.9167C13.1468 10.416 13.3334 10.2295 13.3334 9.99935C13.3334 9.76925 13.1468 9.58268 12.9167 9.58268ZM10 1.66602C5.39766 1.66602 1.66669 5.39699 1.66669 9.99935C1.66669 14.6017 5.39766 18.3327 10 18.3327C14.6001 18.3273 18.328 14.5995 18.3334 9.99935C18.3334 5.39699 14.6024 1.66602 10 1.66602ZM10 17.4993C5.85787 17.4993 2.50002 14.1415 2.50002 9.99935C2.50002 5.8572 5.85787 2.49935 10 2.49935C14.1403 2.50388 17.4955 5.85908 17.5 9.99935C17.5 14.1415 14.1422 17.4993 10 17.4993Z" fill="#FD8D5B"/>
</svg>
