<svg width="20" height="20" viewBox="0 0 20 20" fill="none" xmlns="http://www.w3.org/2000/svg">
<path d="M15 10.0007V14.1673C15 15.548 12.7614 16.6673 10 16.6673C7.23858 16.6673 5 15.548 5 14.1673V10.0007M15 10.0007V5.83398M15 10.0007C15 11.3814 12.7614 12.5007 10 12.5007C7.23858 12.5007 5 11.3814 5 10.0007M15 5.83398C15 4.45327 12.7614 3.33398 10 3.33398C7.23858 3.33398 5 4.45327 5 5.83398M15 5.83398C15 7.2147 12.7614 8.33398 10 8.33398C7.23858 8.33398 5 7.2147 5 5.83398M5 10.0007V5.83398" stroke="#1D51A4" stroke-width="1.5" stroke-linecap="round" stroke-linejoin="round"/>
</svg>
