<svg width="32" height="31" viewBox="0 0 32 31" fill="none" xmlns="http://www.w3.org/2000/svg">
<path d="M7.04282 22.2684H24.9571V13.2784C24.9571 11.6423 24.5476 10.1182 23.7287 8.70594C22.9439 7.32816 21.8775 6.23455 20.5297 5.4251C19.1307 4.61566 17.6208 4.21094 16 4.21094C14.3791 4.21094 12.8692 4.61566 11.4702 5.4251C10.1224 6.23455 9.05605 7.32816 8.27123 8.70594C7.45229 10.1182 7.04282 11.6423 7.04282 13.2784V22.2684ZM16 1.60177C18.0814 1.60177 20.0179 2.13566 21.8093 3.20344C23.5495 4.23677 24.9315 5.63177 25.9552 7.38844C26.9959 9.19677 27.5163 11.1601 27.5163 13.2784V24.8518H4.48364V13.2784C4.48364 11.1601 5.00401 9.19677 6.04474 7.38844C7.06842 5.63177 8.45037 4.23677 10.1906 3.20344C11.982 2.15288 13.9185 1.62761 16 1.62761V1.60177ZM12.801 26.1434H19.1989C19.1989 26.729 19.0539 27.2715 18.7639 27.7709C18.4738 28.2704 18.0857 28.6665 17.5994 28.9593C17.1132 29.252 16.58 29.3984 16 29.3984C15.4199 29.3984 14.8867 29.252 14.4005 28.9593C13.9142 28.6665 13.5261 28.2704 13.236 27.7709C12.946 27.2715 12.801 26.7376 12.801 26.1693V26.1434Z" fill="#6B7280"/>
</svg>
