<svg width="16" height="16" viewBox="0 0 16 16" fill="none" xmlns="http://www.w3.org/2000/svg">
<path d="M2.95333 2.95333L5.77999 5.77999M9.55334 9.55334L12.38 12.38M12.38 2.95333L9.55334 5.77999L11.9067 3.42668M2.95333 12.38L5.77999 9.55334M14.3333 7.66667C14.3333 11.3486 11.3486 14.3333 7.66667 14.3333C3.98477 14.3333 1 11.3486 1 7.66667C1 3.98477 3.98477 1 7.66667 1C11.3486 1 14.3333 3.98477 14.3333 7.66667ZM10.3333 7.66667C10.3333 9.13943 9.13943 10.3333 7.66667 10.3333C6.19391 10.3333 5 9.13943 5 7.66667C5 6.19391 6.19391 5 7.66667 5C9.13943 5 10.3333 6.19391 10.3333 7.66667Z" stroke="#E04F16" stroke-width="2" stroke-linecap="round" stroke-linejoin="round"/>
</svg>
