<svg width="24" height="24" viewBox="0 0 24 24" fill="none" xmlns="http://www.w3.org/2000/svg">
<path d="M14 12L5.619 20.38C5.42202 20.577 5.18815 20.7334 4.93076 20.84C4.67336 20.9467 4.39748 21.0016 4.11885 21.0017C3.55615 21.0018 3.01646 20.7783 2.6185 20.3805C2.22054 19.9827 1.99692 19.4431 1.99683 18.8804C1.99673 18.3177 2.22018 17.778 2.618 17.38L11 9" stroke="#1D51A4" stroke-width="2" stroke-linecap="round" stroke-linejoin="round"/>
<path d="M15 15.5009C15 15.6335 15.0527 15.7607 15.1465 15.8544C15.2402 15.9482 15.3674 16.0009 15.5 16.0009C16.3536 16.0009 17.1988 15.8327 17.9875 15.5061C18.7761 15.1794 19.4926 14.7006 20.0962 14.0971C20.6998 13.4935 21.1786 12.7769 21.5052 11.9883C21.8319 11.1997 22 10.3545 22 9.50087C22 9.36826 21.9473 9.24109 21.8536 9.14732C21.7598 9.05355 21.6326 9.00087 21.5 9.00087H19.828C19.2976 9.00076 18.789 8.78997 18.414 8.41487L13.352 3.35287C13.126 3.12693 12.8196 3 12.5 3C12.1805 3 11.874 3.12693 11.648 3.35287L9.35202 5.64887C9.12608 5.87485 8.99915 6.18132 8.99915 6.50087C8.99915 6.82043 9.12608 7.1269 9.35202 7.35287L14.414 12.4149C14.7891 12.7899 14.9999 13.2985 15 13.8289V15.5009Z" stroke="#1D51A4" stroke-width="2" stroke-linecap="round" stroke-linejoin="round"/>
</svg>
