<svg width="20" height="20" viewBox="0 0 20 20" fill="none" xmlns="http://www.w3.org/2000/svg">
<g clip-path="url(#clip0_6764_24601)">
<path d="M15.0108 13.5961C14.3646 14.4726 13.5134 15.1774 12.5318 15.6489C11.5502 16.1205 10.4681 16.3444 9.37998 16.3011C8.29187 16.2578 7.23093 15.9486 6.28992 15.4005C5.34892 14.8525 4.55649 14.0822 3.98192 13.1572C3.40735 12.2321 3.06814 11.1804 2.99394 10.0939C2.91973 9.00751 3.1128 7.91943 3.55626 6.92484C3.99972 5.93025 4.68006 5.05944 5.53782 4.38853C6.39557 3.71762 7.40462 3.26704 8.47674 3.07619M16.1276 11.197C16.3317 10.3457 16.3662 9.46247 16.2289 8.59781C16.0917 7.73315 15.7855 6.90399 15.3278 6.15767C14.8702 5.41134 14.27 4.76247 13.5615 4.2481C12.8531 3.73372 12.0503 3.36392 11.1989 3.15981L9.64466 9.64277L16.1276 11.197Z" stroke="#0E9384" stroke-width="2" stroke-linecap="round" stroke-linejoin="round"/>
</g>
<defs>
<clipPath id="clip0_6764_24601">
<rect width="16" height="16" fill="white" transform="translate(3.73027) rotate(13.4821)"/>
</clipPath>
</defs>
</svg>
