<svg width="21" height="21" viewBox="0 0 21 21" fill="none" xmlns="http://www.w3.org/2000/svg">
<path d="M8.9845 18.375C9.1381 18.641 9.35901 18.8619 9.62504 19.0155C9.89106 19.1691 10.1928 19.2499 10.5 19.2499C10.8072 19.2499 11.1089 19.1691 11.375 19.0155C11.641 18.8619 11.8619 18.641 12.0155 18.375" stroke="white" stroke-width="2" stroke-linecap="round" stroke-linejoin="round"/>
<path d="M2.85425 13.4103C2.73995 13.5355 2.66451 13.6913 2.63713 13.8587C2.60974 14.0261 2.63158 14.1978 2.69999 14.353C2.76841 14.5082 2.88044 14.6401 3.02248 14.7328C3.16451 14.8255 3.33041 14.8749 3.5 14.875H17.5C17.6696 14.8751 17.8355 14.8258 17.9776 14.7333C18.1198 14.6408 18.2319 14.509 18.3005 14.354C18.3691 14.1989 18.3912 14.0272 18.364 13.8598C18.3368 13.6924 18.2616 13.5365 18.1475 13.4111C16.9838 12.2115 15.75 10.9366 15.75 7C15.75 5.60761 15.1969 4.27226 14.2123 3.28769C13.2277 2.30312 11.8924 1.75 10.5 1.75C9.10762 1.75 7.77226 2.30312 6.78769 3.28769C5.80313 4.27226 5.25 5.60761 5.25 7C5.25 10.9366 4.01538 12.2115 2.85425 13.4103Z" stroke="white" stroke-width="2" stroke-linecap="round" stroke-linejoin="round"/>
</svg>
