<svg width="21" height="21" viewBox="0 0 21 21" fill="none" xmlns="http://www.w3.org/2000/svg">
<path d="M15.75 18.375V8.75C15.75 8.51794 15.6578 8.29538 15.4937 8.13128C15.3296 7.96719 15.1071 7.875 14.875 7.875H6.125C5.89294 7.875 5.67038 7.96719 5.50628 8.13128C5.34219 8.29538 5.25 8.51794 5.25 8.75V18.375" stroke="white" stroke-width="2" stroke-linecap="round" stroke-linejoin="round"/>
<path d="M19.25 16.6251C19.25 17.0892 19.0656 17.5343 18.7374 17.8625C18.4092 18.1907 17.9641 18.3751 17.5 18.3751H3.5C3.03587 18.3751 2.59075 18.1907 2.26256 17.8625C1.93437 17.5343 1.75 17.0892 1.75 16.6251V7.00009C1.74981 6.67055 1.84267 6.34764 2.0179 6.06854C2.19313 5.78944 2.44361 5.56549 2.7405 5.42247L9.69675 1.94522C9.94518 1.81678 10.2208 1.74976 10.5004 1.74976C10.7801 1.74976 11.0557 1.81678 11.3041 1.94522L18.2586 5.42247C18.5557 5.56537 18.8063 5.78926 18.9817 6.06837C19.1571 6.34748 19.2501 6.67045 19.25 7.00009V16.6251Z" stroke="white" stroke-width="2" stroke-linecap="round" stroke-linejoin="round"/>
<path d="M5.25 11.375H15.75" stroke="white" stroke-width="2" stroke-linecap="round" stroke-linejoin="round"/>
<path d="M5.25 14.875H15.75" stroke="white" stroke-width="2" stroke-linecap="round" stroke-linejoin="round"/>
</svg>
