<svg width="21" height="21" viewBox="0 0 21 21" fill="none" xmlns="http://www.w3.org/2000/svg">
<path d="M14 8.75C14 9.21413 13.8156 9.65925 13.4874 9.98744C13.1592 10.3156 12.7141 10.5 12.25 10.5H5.9745C5.51041 10.5001 5.06536 10.6845 4.73725 11.0128L2.8105 12.9395C2.72362 13.0264 2.61293 13.0855 2.49243 13.1095C2.37193 13.1335 2.24703 13.1211 2.13352 13.0741C2.02001 13.0271 1.92299 12.9475 1.85472 12.8454C1.78646 12.7432 1.75002 12.6231 1.75 12.5003V3.5C1.75 3.03587 1.93437 2.59075 2.26256 2.26256C2.59075 1.93437 3.03587 1.75 3.5 1.75H12.25C12.7141 1.75 13.1592 1.93437 13.4874 2.26256C13.8156 2.59075 14 3.03587 14 3.5V8.75Z" stroke="white" stroke-width="2" stroke-linecap="round" stroke-linejoin="round"/>
<path d="M17.5 7.875C17.9641 7.875 18.4092 8.05937 18.7374 8.38756C19.0656 8.71575 19.25 9.16087 19.25 9.625V18.6252C19.25 18.7481 19.2135 18.8682 19.1453 18.9704C19.077 19.0725 18.98 19.1521 18.8665 19.1991C18.753 19.2461 18.6281 19.2585 18.5076 19.2345C18.3871 19.2105 18.2764 19.1514 18.1895 19.0645L16.2628 17.1378C15.9346 16.8095 15.4896 16.6251 15.0255 16.625H8.75C8.28587 16.625 7.84075 16.4406 7.51256 16.1124C7.18437 15.7842 7 15.3391 7 14.875V14" stroke="white" stroke-width="2" stroke-linecap="round" stroke-linejoin="round"/>
</svg>
