<svg width="21" height="21" viewBox="0 0 21 21" fill="none" xmlns="http://www.w3.org/2000/svg">
<path d="M12.25 15.75V5.25C12.25 4.78587 12.0656 4.34075 11.7374 4.01256C11.4092 3.68437 10.9641 3.5 10.5 3.5H3.5C3.03587 3.5 2.59075 3.68437 2.26256 4.01256C1.93437 4.34075 1.75 4.78587 1.75 5.25V14.875C1.75 15.1071 1.84219 15.3296 2.00628 15.4937C2.17038 15.6578 2.39294 15.75 2.625 15.75H4.375" stroke="white" stroke-width="2" stroke-linecap="round" stroke-linejoin="round"/>
<path d="M13.125 15.75H7.875" stroke="white" stroke-width="2" stroke-linecap="round" stroke-linejoin="round"/>
<path d="M16.625 15.75H18.375C18.6071 15.75 18.8296 15.6578 18.9937 15.4937C19.1578 15.3296 19.25 15.1071 19.25 14.875V11.6813C19.2496 11.4827 19.1818 11.2901 19.0575 11.1352L16.0125 7.329C15.9307 7.22652 15.8268 7.14375 15.7087 7.0868C15.5906 7.02985 15.4611 7.00019 15.33 7H12.25" stroke="white" stroke-width="2" stroke-linecap="round" stroke-linejoin="round"/>
<path d="M14.875 17.5C15.8415 17.5 16.625 16.7165 16.625 15.75C16.625 14.7835 15.8415 14 14.875 14C13.9085 14 13.125 14.7835 13.125 15.75C13.125 16.7165 13.9085 17.5 14.875 17.5Z" stroke="white" stroke-width="2" stroke-linecap="round" stroke-linejoin="round"/>
<path d="M6.125 17.5C7.0915 17.5 7.875 16.7165 7.875 15.75C7.875 14.7835 7.0915 14 6.125 14C5.1585 14 4.375 14.7835 4.375 15.75C4.375 16.7165 5.1585 17.5 6.125 17.5Z" stroke="white" stroke-width="2" stroke-linecap="round" stroke-linejoin="round"/>
</svg>
