<svg width="54" height="74" viewBox="0 0 54 74" fill="none" xmlns="http://www.w3.org/2000/svg">
<path d="M33 14.2308C36.2 13.32 50 8.53846 54 0V59.2H38C38 46.4872 33 19.6954 33 14.2308Z" fill="#E5ECFF"/>
<path d="M0 24.2307C0 18.7078 4.47359 14.2307 9.99644 14.2307C15.3476 14.2307 21.8727 14.2307 27 14.2307C37.5442 14.2307 54 2.22655 54 14.2307C54 32.446 54 59.7691 54 59.7691H10C4.47715 59.7691 0 55.292 0 49.7691V24.2307Z" fill="#E5ECFF"/>
<path d="M33 59.7692C36.2 60.68 50 65.4615 54 74V14.8H38C38 27.5128 33 54.3046 33 59.7692Z" fill="#E5ECFF"/>
<path d="M0 49.7693C0 55.2922 4.47359 59.7693 9.99644 59.7693C15.3476 59.7693 21.8727 59.7693 27 59.7693C37.5442 59.7693 54 71.7734 54 59.7693C54 41.554 54 14.2309 54 14.2309H10C4.47715 14.2309 0 18.708 0 24.2309V49.7693Z" fill="#E5ECFF"/>
</svg>
