<svg width="10" height="13" viewBox="0 0 10 13" fill="none" xmlns="http://www.w3.org/2000/svg">
<path d="M0 12.25C0 11.4022 0.213889 10.6167 0.641667 9.89333C1.05389 9.19333 1.61 8.63722 2.31 8.225C3.03333 7.79722 3.81889 7.58333 4.66667 7.58333C5.51444 7.58333 6.3 7.79722 7.02333 8.225C7.72333 8.63722 8.27944 9.19333 8.69167 9.89333C9.11944 10.6167 9.33333 11.4022 9.33333 12.25H8.16667C8.16667 11.62 8.00722 11.0328 7.68833 10.4883C7.37722 9.95944 6.95722 9.53944 6.42833 9.22833C5.88389 8.90944 5.29667 8.75 4.66667 8.75C4.03667 8.75 3.44944 8.90944 2.905 9.22833C2.37611 9.53944 1.95611 9.95944 1.645 10.4883C1.32611 11.0328 1.16667 11.62 1.16667 12.25H0ZM4.66667 7C4.02889 7 3.44167 6.84056 2.905 6.52167C2.37611 6.21056 1.95611 5.79056 1.645 5.26167C1.32611 4.725 1.16667 4.13778 1.16667 3.5C1.16667 2.86222 1.32611 2.275 1.645 1.73833C1.95611 1.20944 2.37611 0.789444 2.905 0.478333C3.44167 0.159445 4.02889 0 4.66667 0C5.30444 0 5.89167 0.159445 6.42833 0.478333C6.95722 0.789444 7.37722 1.20944 7.68833 1.73833C8.00722 2.275 8.16667 2.86222 8.16667 3.5C8.16667 4.13778 8.00722 4.725 7.68833 5.26167C7.37722 5.79056 6.95722 6.21056 6.42833 6.52167C5.89167 6.84056 5.30444 7 4.66667 7ZM4.66667 5.83333C5.08667 5.83333 5.47556 5.72833 5.83333 5.51833C6.19111 5.30833 6.475 5.02444 6.685 4.66667C6.895 4.30889 7 3.92 7 3.5C7 3.08 6.895 2.69111 6.685 2.33333C6.475 1.97556 6.19111 1.69167 5.83333 1.48167C5.47556 1.27167 5.08667 1.16667 4.66667 1.16667C4.24667 1.16667 3.85778 1.27167 3.5 1.48167C3.14222 1.69167 2.85833 1.97556 2.64833 2.33333C2.43833 2.69111 2.33333 3.08 2.33333 3.5C2.33333 3.92 2.43833 4.30889 2.64833 4.66667C2.85833 5.02444 3.14222 5.30833 3.5 5.51833C3.85778 5.72833 4.24667 5.83333 4.66667 5.83333Z" fill="#3E4857"/>
</svg>
