<svg width="21" height="20" viewBox="0 0 21 20" fill="none" xmlns="http://www.w3.org/2000/svg">
<path d="M10.42 18.332C9.28667 18.332 8.20334 18.1154 7.17 17.682C6.18111 17.2598 5.30056 16.6626 4.52834 15.8904C3.75611 15.1181 3.15889 14.2376 2.73667 13.2487C2.30334 12.2154 2.08667 11.132 2.08667 9.9987C2.08667 8.86536 2.30334 7.78203 2.73667 6.7487C3.15889 5.75981 3.75611 4.87925 4.52834 4.10703C5.30056 3.33481 6.18111 2.73759 7.17 2.31536C8.20334 1.88203 9.28667 1.66536 10.42 1.66536C11.5533 1.66536 12.6367 1.88203 13.67 2.31536C14.6589 2.73759 15.5394 3.33481 16.3117 4.10703C17.0839 4.87925 17.6811 5.75981 18.1033 6.7487C18.5367 7.78203 18.7533 8.86536 18.7533 9.9987C18.7533 11.132 18.5367 12.2154 18.1033 13.2487C17.6811 14.2376 17.0839 15.1181 16.3117 15.8904C15.5394 16.6626 14.6589 17.2598 13.67 17.682C12.6367 18.1154 11.5533 18.332 10.42 18.332ZM10.42 16.6654C11.6311 16.6654 12.7533 16.3598 13.7867 15.7487C14.7867 15.1598 15.5811 14.3654 16.17 13.3654C16.7811 12.332 17.0867 11.2098 17.0867 9.9987C17.0867 8.78759 16.7811 7.66536 16.17 6.63203C15.5811 5.63203 14.7867 4.83759 13.7867 4.2487C12.7533 3.63759 11.6311 3.33203 10.42 3.33203C9.20889 3.33203 8.08667 3.63759 7.05334 4.2487C6.05334 4.83759 5.25889 5.63203 4.67 6.63203C4.05889 7.66536 3.75334 8.78759 3.75334 9.9987C3.75334 11.2098 4.05889 12.332 4.67 13.3654C5.25889 14.3654 6.05334 15.1598 7.05334 15.7487C8.08667 16.3598 9.20889 16.6654 10.42 16.6654ZM7.50334 11.6654H12.0867C12.1978 11.6654 12.295 11.6237 12.3783 11.5404C12.4617 11.457 12.5033 11.3598 12.5033 11.2487C12.5033 11.1376 12.4617 11.0404 12.3783 10.957C12.295 10.8737 12.1978 10.832 12.0867 10.832H8.75334C8.37556 10.832 8.02834 10.7376 7.71167 10.5487C7.395 10.3598 7.14223 10.107 6.95334 9.79036C6.76445 9.4737 6.67 9.12648 6.67 8.7487C6.67 8.37092 6.76445 8.0237 6.95334 7.70703C7.14223 7.39036 7.395 7.13759 7.71167 6.9487C8.02834 6.75981 8.37556 6.66536 8.75334 6.66536H9.58667V4.9987H11.2533V6.66536H13.3367V8.33203H8.75334C8.64223 8.33203 8.545 8.3737 8.46167 8.45703C8.37834 8.54036 8.33667 8.63759 8.33667 8.7487C8.33667 8.85981 8.37834 8.95703 8.46167 9.04036C8.545 9.1237 8.64223 9.16536 8.75334 9.16536H12.0867C12.4644 9.16536 12.8117 9.25981 13.1283 9.4487C13.445 9.63759 13.6978 9.89036 13.8867 10.207C14.0756 10.5237 14.17 10.8709 14.17 11.2487C14.17 11.6265 14.0756 11.9737 13.8867 12.2904C13.6978 12.607 13.445 12.8598 13.1283 13.0487C12.8117 13.2376 12.4644 13.332 12.0867 13.332H11.2533V14.9987H9.58667V13.332H7.50334V11.6654Z" fill="#EAB308"/>
</svg>
