<svg width="24" height="24" viewBox="0 0 24 24" fill="none" xmlns="http://www.w3.org/2000/svg">
<path d="M17 3.33989C18.5083 4.21075 19.7629 5.46042 20.6398 6.96519C21.5167 8.46997 21.9854 10.1777 21.9994 11.9192C22.0135 13.6608 21.5725 15.3758 20.72 16.8946C19.8676 18.4133 18.6332 19.6831 17.1392 20.5782C15.6452 21.4733 13.9434 21.9627 12.2021 21.998C10.4608 22.0332 8.74055 21.6131 7.21155 20.7791C5.68256 19.9452 4.39787 18.7264 3.48467 17.2434C2.57146 15.7604 2.06141 14.0646 2.005 12.3239L2 11.9999L2.005 11.6759C2.061 9.94888 2.56355 8.26585 3.46364 6.79089C4.36373 5.31592 5.63065 4.09934 7.14089 3.25977C8.65113 2.42021 10.3531 1.98629 12.081 2.00033C13.8089 2.01437 15.5036 2.47589 17 3.33989ZM12.01 14.9999L11.883 15.0069C11.64 15.0358 11.4159 15.1528 11.2534 15.3359C11.0909 15.5189 11.0011 15.7551 11.0011 15.9999C11.0011 16.2447 11.0909 16.4809 11.2534 16.6639C11.4159 16.8469 11.64 16.964 11.883 16.9929L12 16.9999L12.127 16.9929C12.37 16.964 12.5941 16.8469 12.7566 16.6639C12.9191 16.4809 13.0089 16.2447 13.0089 15.9999C13.0089 15.7551 12.9191 15.5189 12.7566 15.3359C12.5941 15.1528 12.37 15.0358 12.127 15.0069L12.01 14.9999ZM12 6.99989C11.7551 6.99993 11.5187 7.08985 11.3356 7.25261C11.1526 7.41537 11.0357 7.63964 11.007 7.88289L11 7.99989V11.9999L11.007 12.1169C11.0359 12.3599 11.153 12.5839 11.336 12.7465C11.519 12.909 11.7552 12.9988 12 12.9988C12.2448 12.9988 12.481 12.909 12.664 12.7465C12.847 12.5839 12.9641 12.3599 12.993 12.1169L13 11.9999V7.99989L12.993 7.88289C12.9643 7.63964 12.8474 7.41537 12.6644 7.25261C12.4813 7.08985 12.2449 6.99993 12 6.99989Z" fill="white"/>
</svg>
