<svg width="17" height="17" viewBox="0 0 17 17" fill="none" xmlns="http://www.w3.org/2000/svg">
<path d="M8.33333 16.666C7.2 16.666 6.11667 16.4493 5.08333 16.016C4.09444 15.5938 3.21389 14.9966 2.44167 14.2243C1.66944 13.4521 1.07222 12.5716 0.65 11.5827C0.216667 10.5493 0 9.46602 0 8.33268C0 7.19935 0.216667 6.11602 0.65 5.08268C1.07222 4.09379 1.66944 3.21324 2.44167 2.44102C3.21389 1.66879 4.09444 1.07157 5.08333 0.649347C6.11667 0.216015 7.2 -0.000652313 8.33333 -0.000652313C9.46667 -0.000652313 10.55 0.216015 11.5833 0.649347C12.5722 1.07157 13.4528 1.66879 14.225 2.44102C14.9972 3.21324 15.5944 4.09379 16.0167 5.08268C16.45 6.11602 16.6667 7.19935 16.6667 8.33268C16.6667 9.46602 16.45 10.5493 16.0167 11.5827C15.5944 12.5716 14.9972 13.4521 14.225 14.2243C13.4528 14.9966 12.5722 15.5938 11.5833 16.016C10.55 16.4493 9.46667 16.666 8.33333 16.666ZM8.33333 14.9993C9.54445 14.9993 10.6667 14.6938 11.7 14.0827C12.7 13.4938 13.4944 12.6993 14.0833 11.6993C14.6944 10.666 15 9.54379 15 8.33268C15 7.12157 14.6944 5.99935 14.0833 4.96601C13.4944 3.96601 12.7 3.17157 11.7 2.58268C10.6667 1.97157 9.54445 1.66601 8.33333 1.66601C7.12222 1.66601 6 1.97157 4.96667 2.58268C3.96667 3.17157 3.17222 3.96601 2.58333 4.96601C1.97222 5.99935 1.66667 7.12157 1.66667 8.33268C1.66667 9.54379 1.97222 10.666 2.58333 11.6993C3.17222 12.6993 3.96667 13.4938 4.96667 14.0827C6 14.6938 7.12222 14.9993 8.33333 14.9993ZM5.41667 9.99935H10C10.1111 9.99935 10.2083 9.95768 10.2917 9.87435C10.375 9.79102 10.4167 9.69379 10.4167 9.58268C10.4167 9.47157 10.375 9.37435 10.2917 9.29102C10.2083 9.20768 10.1111 9.16602 10 9.16602H6.66667C6.28889 9.16602 5.94167 9.07157 5.625 8.88268C5.30833 8.69379 5.05556 8.44102 4.86667 8.12435C4.67778 7.80768 4.58333 7.46046 4.58333 7.08268C4.58333 6.7049 4.67778 6.35768 4.86667 6.04101C5.05556 5.72435 5.30833 5.47157 5.625 5.28268C5.94167 5.09379 6.28889 4.99935 6.66667 4.99935H7.5V3.33268H9.16667V4.99935H11.25V6.66601H6.66667C6.55556 6.66601 6.45833 6.70768 6.375 6.79101C6.29167 6.87435 6.25 6.97157 6.25 7.08268C6.25 7.19379 6.29167 7.29101 6.375 7.37435C6.45833 7.45768 6.55556 7.49935 6.66667 7.49935H10C10.3778 7.49935 10.725 7.59379 11.0417 7.78268C11.3583 7.97157 11.6111 8.22435 11.8 8.54102C11.9889 8.85768 12.0833 9.2049 12.0833 9.58268C12.0833 9.96046 11.9889 10.3077 11.8 10.6243C11.6111 10.941 11.3583 11.1938 11.0417 11.3827C10.725 11.5716 10.3778 11.666 10 11.666H9.16667V13.3327H7.5V11.666H5.41667V9.99935Z" fill="#2563EB"/>
</svg>
