<svg width="20" height="20" viewBox="0 0 20 20" fill="none" xmlns="http://www.w3.org/2000/svg">
<path d="M16.333 0C18.293 0 19.893 1.537 19.995 3.472L20 3.667V16.333C20 18.293 18.463 19.893 16.528 19.995L16.333 20H3.667C2.72818 20 1.82509 19.64 1.1438 18.9941C0.462517 18.3481 0.0549239 17.4655 0.00500011 16.528L0 16.333V3.667C0 1.707 1.537 0.107 3.472 0.00500011L3.667 0H16.333ZM4 13C3.73478 13 3.48043 13.1054 3.29289 13.2929C3.10536 13.4804 3 13.7348 3 14V16L3.007 16.117C3.0371 16.3701 3.16271 16.6021 3.35817 16.7657C3.55362 16.9293 3.80416 17.0121 4.05861 16.9972C4.31305 16.9822 4.55218 16.8707 4.72715 16.6854C4.90212 16.5 4.99972 16.2549 5 16V14L4.993 13.883C4.96434 13.6397 4.84741 13.4155 4.66437 13.2527C4.48134 13.09 4.24493 13 4 13ZM7 9C6.73478 9 6.48043 9.10536 6.29289 9.29289C6.10536 9.48043 6 9.73478 6 10V16L6.007 16.117C6.0371 16.3701 6.16271 16.6021 6.35817 16.7657C6.55362 16.9293 6.80416 17.0121 7.05861 16.9972C7.31305 16.9822 7.55218 16.8707 7.72715 16.6854C7.90212 16.5 7.99972 16.2549 8 16V10L7.993 9.883C7.96434 9.63975 7.84741 9.41547 7.66437 9.25272C7.48134 9.08996 7.24493 9.00003 7 9ZM10 11C9.73478 11 9.48043 11.1054 9.29289 11.2929C9.10536 11.4804 9 11.7348 9 12V16L9.007 16.117C9.0371 16.3701 9.16271 16.6021 9.35817 16.7657C9.55362 16.9293 9.80416 17.0121 10.0586 16.9972C10.313 16.9822 10.5522 16.8707 10.7272 16.6854C10.9021 16.5 10.9997 16.2549 11 16V12L10.993 11.883C10.9643 11.6397 10.8474 11.4155 10.6644 11.2527C10.4813 11.09 10.2449 11 10 11Z" fill="white"/>
</svg>
