<svg width="19" height="18" viewBox="0 0 19 18" fill="none" xmlns="http://www.w3.org/2000/svg">
<path d="M2.63499 2.25H16.135C16.345 2.25 16.5225 2.3225 16.6675 2.4675C16.8125 2.6125 16.885 2.79 16.885 3V15C16.885 15.21 16.8125 15.3875 16.6675 15.5325C16.5225 15.6775 16.345 15.75 16.135 15.75H2.63499C2.42499 15.75 2.24749 15.6775 2.10249 15.5325C1.95749 15.3875 1.88499 15.21 1.88499 15V3C1.88499 2.79 1.95749 2.6125 2.10249 2.4675C2.24749 2.3225 2.42499 2.25 2.63499 2.25ZM3.38499 3.75V14.25H15.385V3.75H3.38499ZM5.63499 9.75H7.13499V12.75H5.63499V9.75ZM8.63499 5.25H10.135V12.75H8.63499V5.25ZM11.635 7.5H13.135V12.75H11.635V7.5Z" fill="#4F46E5"/>
</svg>
