<svg width="21" height="20" viewBox="0 0 21 20" fill="none" xmlns="http://www.w3.org/2000/svg">
<path d="M7.08667 3.33398L4.58667 1.66732L2.08667 3.33398V15.834C2.08667 16.2895 2.19778 16.709 2.42 17.0923C2.64223 17.4757 2.945 17.7784 3.32834 18.0007C3.71167 18.2229 4.13111 18.334 4.58667 18.334H16.2533C16.7089 18.334 17.1283 18.2229 17.5117 18.0007C17.895 17.7784 18.1978 17.4757 18.42 17.0923C18.6422 16.709 18.7533 16.2895 18.7533 15.834V13.334H17.0867V3.33398L14.5867 1.66732L12.0867 3.33398L9.58667 1.66732L7.08667 3.33398ZM15.42 13.334H5.42V15.834C5.42 16.0673 5.33945 16.2645 5.17834 16.4257C5.01723 16.5868 4.82 16.6673 4.58667 16.6673C4.35334 16.6673 4.15611 16.5868 3.995 16.4257C3.83389 16.2645 3.75334 16.0673 3.75334 15.834V4.23398L4.58667 3.66732L7.08667 5.33398L9.58667 3.66732L12.0867 5.33398L14.5867 3.66732L15.42 4.23398V13.334ZM16.2533 16.6673H6.93667C7.03667 16.4007 7.08667 16.1229 7.08667 15.834V15.0007H17.0867V15.834C17.0867 16.0673 17.0061 16.2645 16.845 16.4257C16.6839 16.5868 16.4867 16.6673 16.2533 16.6673Z" fill="#EA580C"/>
</svg>
