<svg width="20" height="20" viewBox="0 0 20 20" fill="none" xmlns="http://www.w3.org/2000/svg">
<path d="M10.0011 7.49935C9.08066 7.49935 8.33447 8.05899 8.33447 8.74935C8.33447 9.4397 9.08066 9.99935 10.0011 9.99935C10.9216 9.99935 11.6678 10.559 11.6678 11.2493C11.6678 11.9397 10.9216 12.4993 10.0011 12.4993M10.0011 7.49935C10.7268 7.49935 11.3442 7.84719 11.573 8.33268M10.0011 7.49935V6.66602M10.0011 12.4993C9.27546 12.4993 8.65811 12.1515 8.42931 11.666M10.0011 12.4993V13.3327" stroke="#FD8D5B" stroke-width="1.5" stroke-linecap="round"/>
<path d="M10.833 2.08203C10.833 2.08203 10.5696 2.08204 9.99967 2.08204C6.26772 2.08204 4.40175 2.08204 3.24238 3.2414C2.08301 4.40077 2.08301 6.26675 2.08301 9.9987C2.08301 13.7307 2.08301 15.5966 3.24238 16.756C4.40175 17.9154 6.26772 17.9154 9.99967 17.9154C13.7316 17.9154 15.5976 17.9154 16.757 16.756C17.9163 15.5966 17.9163 13.7307 17.9163 9.9987C17.9163 9.42878 17.9163 9.16536 17.9163 9.16536" stroke="#FD8D5B" stroke-width="1.5" stroke-linecap="round"/>
<path d="M13.6036 5.30013C13.3094 5.59166 13.3072 6.06653 13.5987 6.36078C13.8903 6.65503 14.3651 6.65723 14.6594 6.3657L14.1315 5.83292L13.6036 5.30013ZM18.4444 2.61567C18.7386 2.32414 18.7408 1.84927 18.4493 1.55502C18.1578 1.26077 17.6829 1.25857 17.3886 1.5501L17.9165 2.08289L18.4444 2.61567ZM14.5596 6.06037L14.6904 5.32186L14.5596 6.06037ZM13.9392 5.4398L13.2007 5.57045V5.57045L13.9392 5.4398ZM17.4897 6.99602C17.9039 7.00169 18.2442 6.67053 18.2499 6.25636C18.2556 5.84218 17.9244 5.50183 17.5102 5.49616L17.5 6.24609L17.4897 6.99602ZM14.5034 2.48927C14.4977 2.0751 14.1574 1.74396 13.7432 1.74965C13.329 1.75535 12.9979 2.09572 13.0036 2.5099L13.7535 2.49958L14.5034 2.48927ZM14.1315 5.83292L14.6594 6.3657L18.4444 2.61567L17.9165 2.08289L17.3886 1.5501L13.6036 5.30013L14.1315 5.83292ZM14.5596 6.06037L14.6904 5.32186C14.6804 5.32009 14.6761 5.31791 14.6758 5.31774C14.6755 5.31759 14.6771 5.3184 14.6791 5.32049C14.6812 5.32258 14.682 5.32412 14.6819 5.3238C14.6817 5.32344 14.6795 5.31913 14.6777 5.30914L13.9392 5.4398L13.2007 5.57045C13.3132 6.20659 13.7924 6.68618 14.4288 6.79887L14.5596 6.06037ZM14.5596 6.06037L14.4288 6.79887C15.2863 6.95073 16.7949 6.98651 17.4897 6.99602L17.5 6.24609L17.5102 5.49616C16.7847 5.48623 15.4051 5.44845 14.6904 5.32186L14.5596 6.06037ZM13.7535 2.49958L13.0036 2.5099C13.0131 3.20469 13.049 4.71312 13.2007 5.57045L13.9392 5.4398L14.6777 5.30914C14.5512 4.59428 14.5134 3.21472 14.5034 2.48927L13.7535 2.49958Z" fill="#FD8D5B"/>
</svg>
