<svg width="20" height="20" viewBox="0 0 20 20" fill="none" xmlns="http://www.w3.org/2000/svg">
<path d="M11.0825 2.625L18.2775 15.0867C18.3872 15.2767 18.445 15.4922 18.445 15.7117C18.445 15.9311 18.3872 16.1466 18.2775 16.3367C18.1678 16.5267 18.01 16.6845 17.82 16.7942C17.63 16.9039 17.4144 16.9617 17.195 16.9617H2.80499C2.58557 16.9617 2.37002 16.9039 2.18 16.7942C1.98998 16.6845 1.83219 16.5267 1.72248 16.3367C1.61278 16.1466 1.55502 15.9311 1.55502 15.7117C1.55502 15.4922 1.61278 15.2767 1.72249 15.0867L8.91749 2.625C9.39832 1.79167 10.6008 1.79167 11.0825 2.625ZM9.99999 4.08333L3.52666 15.295H16.4733L9.99999 4.08333ZM9.99999 12.5017C10.221 12.5017 10.433 12.5895 10.5892 12.7457C10.7455 12.902 10.8333 13.114 10.8333 13.335C10.8333 13.556 10.7455 13.768 10.5892 13.9243C10.433 14.0805 10.221 14.1683 9.99999 14.1683C9.77898 14.1683 9.56702 14.0805 9.41074 13.9243C9.25445 13.768 9.16666 13.556 9.16666 13.335C9.16666 13.114 9.25445 12.902 9.41074 12.7457C9.56702 12.5895 9.77898 12.5017 9.99999 12.5017ZM9.99999 6.66833C10.221 6.66833 10.433 6.75613 10.5892 6.91241C10.7455 7.06869 10.8333 7.28065 10.8333 7.50167V10.835C10.8333 11.056 10.7455 11.268 10.5892 11.4243C10.433 11.5805 10.221 11.6683 9.99999 11.6683C9.77898 11.6683 9.56702 11.5805 9.41074 11.4243C9.25445 11.268 9.16666 11.056 9.16666 10.835V7.50167C9.16666 7.28065 9.25445 7.06869 9.41074 6.91241C9.56702 6.75613 9.77898 6.66833 9.99999 6.66833Z" fill="#735700"/>
</svg>
