<svg width="21" height="20" viewBox="0 0 21 20" fill="none" xmlns="http://www.w3.org/2000/svg">
<path d="M10.8367 12.3V14.0333C10.3033 13.8444 9.74777 13.75 9.16999 13.75C8.26999 13.75 7.4311 13.9778 6.65333 14.4333C5.89777 14.8778 5.29777 15.4778 4.85333 16.2333C4.39777 17.0111 4.16999 17.85 4.16999 18.75H2.50333C2.50333 17.5389 2.80888 16.4167 3.41999 15.3833C4.00888 14.3833 4.80333 13.5889 5.80333 13C6.83666 12.3889 7.95888 12.0833 9.16999 12.0833C9.73666 12.0833 10.2922 12.1556 10.8367 12.3ZM9.16999 11.25C8.25888 11.25 7.41999 11.0222 6.65333 10.5667C5.89777 10.1222 5.29777 9.52222 4.85333 8.76667C4.39777 8 4.16999 7.16111 4.16999 6.25C4.16999 5.33889 4.39777 4.5 4.85333 3.73333C5.29777 2.97778 5.89777 2.37778 6.65333 1.93333C7.41999 1.47778 8.25888 1.25 9.16999 1.25C10.0811 1.25 10.92 1.47778 11.6867 1.93333C12.4422 2.37778 13.0422 2.97778 13.4867 3.73333C13.9422 4.5 14.17 5.33889 14.17 6.25C14.17 7.16111 13.9422 8 13.4867 8.76667C13.0422 9.52222 12.4422 10.1222 11.6867 10.5667C10.92 11.0222 10.0811 11.25 9.16999 11.25ZM9.16999 9.58333C9.76999 9.58333 10.3255 9.43333 10.8367 9.13333C11.3478 8.83333 11.7533 8.42778 12.0533 7.91667C12.3533 7.40555 12.5033 6.85 12.5033 6.25C12.5033 5.65 12.3533 5.09444 12.0533 4.58333C11.7533 4.07222 11.3478 3.66667 10.8367 3.36667C10.3255 3.06667 9.76999 2.91667 9.16999 2.91667C8.56999 2.91667 8.01444 3.06667 7.50333 3.36667C6.99222 3.66667 6.58666 4.07222 6.28666 4.58333C5.98666 5.09444 5.83666 5.65 5.83666 6.25C5.83666 6.85 5.98666 7.40555 6.28666 7.91667C6.58666 8.42778 6.99222 8.83333 7.50333 9.13333C8.01444 9.43333 8.56999 9.58333 9.16999 9.58333ZM14.17 14.5833V12.0833H15.8367V14.5833H18.3367V16.25H15.8367V18.75H14.17V16.25H11.67V14.5833H14.17Z" fill="#1D51A4"/>
</svg>
