<svg width="20" height="19" viewBox="0 0 20 19" fill="none" xmlns="http://www.w3.org/2000/svg">
<path d="M7.8889 8.455C8.26206 9.10944 8.71785 9.70319 9.25627 10.2362C9.79469 10.7693 10.3944 11.2206 11.0554 11.59L11.7591 10.6083C11.8764 10.4394 12.0337 10.3339 12.2309 10.2917C12.4282 10.2494 12.6174 10.2758 12.7987 10.3708C13.9395 10.9936 15.1602 11.3525 16.461 11.4475C16.6636 11.4686 16.8368 11.5531 16.9807 11.7008C17.1247 11.8486 17.1966 12.0281 17.1966 12.2392V15.77C17.1966 15.9706 17.1273 16.1474 16.9887 16.3004C16.8501 16.4535 16.6795 16.5406 16.477 16.5617C16.0505 16.6039 15.624 16.625 15.1976 16.625C13.513 16.625 11.9031 16.3031 10.3678 15.6592C8.88578 15.0364 7.57437 14.1603 6.43356 13.0308C5.29275 11.9014 4.40782 10.6031 3.77878 9.13583C3.12841 7.61583 2.80322 6.02194 2.80322 4.35417C2.80322 3.93194 2.82455 3.50972 2.86719 3.0875C2.88852 2.88694 2.97648 2.71806 3.13107 2.58083C3.28567 2.44361 3.46425 2.375 3.66683 2.375H7.2332C7.44643 2.375 7.62768 2.44625 7.77695 2.58875C7.92621 2.73125 8.01151 2.90278 8.03283 3.10333C8.12879 4.39111 8.49129 5.59972 9.12033 6.72917C9.21629 6.90861 9.24295 7.09597 9.2003 7.29125C9.15765 7.48653 9.05103 7.64222 8.88044 7.75833L7.8889 8.455ZM5.87382 7.9325L7.39312 6.85583C6.96665 5.9375 6.67345 4.97167 6.51353 3.95833H4.40249V4.35417C4.40249 5.80028 4.68503 7.18833 5.2501 8.51833C5.79386 9.79556 6.56417 10.9276 7.56105 11.9146C8.55792 12.9015 9.7014 13.6642 10.9915 14.2025C12.3349 14.7619 13.7369 15.0417 15.1976 15.0417H15.5974V12.9517C14.5738 12.7933 13.5983 12.5031 12.6707 12.0808L11.5832 13.585C11.1461 13.4161 10.7196 13.2156 10.3038 12.9833L10.2558 12.9675C9.4775 12.5242 8.7685 11.9858 8.12879 11.3525C7.48908 10.7192 6.94533 10.0172 6.49753 9.24667L6.48154 9.19917C6.24698 8.7875 6.04441 8.36528 5.87382 7.9325Z" fill="#6B7280"/>
</svg>
