<svg width="17" height="14" viewBox="0 0 17 14" fill="none" xmlns="http://www.w3.org/2000/svg">
<path d="M14.1667 13.3333H2.5C1.12167 13.3333 0 12.2117 0 10.8333V4.16667C0 2.78833 1.12167 1.66667 2.5 1.66667H3.82167L4.655 0.833333C5.1375 0.350833 5.985 0 6.66667 0H10C10.6817 0 11.5292 0.350833 12.0117 0.833333L12.845 1.66667H14.1667C15.545 1.66667 16.6667 2.78833 16.6667 4.16667V10.8333C16.6667 12.2117 15.545 13.3333 14.1667 13.3333ZM2.5 3.33333C2.27899 3.33333 2.06702 3.42113 1.91074 3.57741C1.75446 3.73369 1.66667 3.94565 1.66667 4.16667V10.8333C1.66667 11.0543 1.75446 11.2663 1.91074 11.4226C2.06702 11.5789 2.27899 11.6667 2.5 11.6667H14.1667C14.3877 11.6667 14.5996 11.5789 14.7559 11.4226C14.9122 11.2663 15 11.0543 15 10.8333V4.16667C15 3.94565 14.9122 3.73369 14.7559 3.57741C14.5996 3.42113 14.3877 3.33333 14.1667 3.33333H12.5C12.279 3.33329 12.0671 3.24546 11.9108 3.08917L10.8333 2.01167C10.6658 1.84417 10.2375 1.66667 10 1.66667H6.66667C6.42917 1.66667 6.00083 1.84417 5.83333 2.01167L4.75583 3.08917C4.59959 3.24546 4.38766 3.33329 4.16667 3.33333H2.5ZM8.33333 5C9.4825 5 10.4167 5.93417 10.4167 7.08333C10.4167 8.2325 9.4825 9.16667 8.33333 9.16667C7.18417 9.16667 6.25 8.2325 6.25 7.08333C6.25 5.93417 7.18417 5 8.33333 5ZM8.33333 4.16667C7.55978 4.16667 6.81792 4.47396 6.27094 5.02094C5.72396 5.56792 5.41667 6.30978 5.41667 7.08333C5.41667 7.85688 5.72396 8.59875 6.27094 9.14573C6.81792 9.69271 7.55978 10 8.33333 10C9.10688 10 9.84875 9.69271 10.3957 9.14573C10.9427 8.59875 11.25 7.85688 11.25 7.08333C11.25 6.30978 10.9427 5.56792 10.3957 5.02094C9.84875 4.47396 9.10688 4.16667 8.33333 4.16667ZM13.3333 3.91583C13.1911 3.91583 13.0502 3.94385 12.9188 3.9983C12.7873 4.05274 12.6679 4.13254 12.5673 4.23313C12.4667 4.33373 12.3869 4.45316 12.3325 4.58459C12.278 4.71603 12.25 4.8569 12.25 4.99917C12.25 5.14143 12.278 5.2823 12.3325 5.41374C12.3869 5.54518 12.4667 5.6646 12.5673 5.7652C12.6679 5.8658 12.7873 5.94559 12.9188 6.00004C13.0502 6.05448 13.1911 6.0825 13.3333 6.0825C13.6207 6.0825 13.8962 5.96836 14.0994 5.7652C14.3025 5.56203 14.4167 5.28648 14.4167 4.99917C14.4167 4.71185 14.3025 4.4363 14.0994 4.23313C13.8962 4.02997 13.6207 3.91583 13.3333 3.91583Z" fill="#9333EA"/>
</svg>
