<svg width="50" height="50" viewBox="0 0 50 50" fill="none" xmlns="http://www.w3.org/2000/svg">
<path d="M13.25 47.05L0 50L2.95 36.75C0.983333 33.1167 0 29.2 0 25C0 21.6 0.65 18.35 1.95 15.25C3.21667 12.2833 5.00833 9.64167 7.325 7.325C9.64167 5.00833 12.2833 3.21667 15.25 1.95C18.35 0.649998 21.6 0 25 0C28.4 0 31.65 0.649998 34.75 1.95C37.7167 3.21667 40.3583 5.00833 42.675 7.325C44.9917 9.64167 46.7833 12.2833 48.05 15.25C49.35 18.35 50 21.6 50 25C50 28.4 49.35 31.65 48.05 34.75C46.7833 37.7167 44.9917 40.3583 42.675 42.675C40.3583 44.9917 37.7167 46.7833 34.75 48.05C31.65 49.35 28.4 50 25 50C20.8 50 16.8833 49.0167 13.25 47.05ZM13.95 41.8L15.6 42.65C18.5333 44.2167 21.6667 45 25 45C28.6333 45 32 44.0833 35.1 42.25C38.1 40.4833 40.4833 38.1 42.25 35.1C44.0833 32 45 28.6333 45 25C45 21.3667 44.0833 18 42.25 14.9C40.4833 11.9 38.1 9.51667 35.1 7.75C32 5.91666 28.6333 5 25 5C21.3667 5 18 5.91666 14.9 7.75C11.9 9.51667 9.51667 11.9 7.75 14.9C5.91667 18 5 21.3667 5 25C5 28.3333 5.78333 31.4667 7.35 34.4L8.2 36.05L6.6 43.4L13.95 41.8Z" fill="#D1D5DB"/>
</svg>
