<svg width="20" height="20" viewBox="0 0 20 20" fill="none" xmlns="http://www.w3.org/2000/svg">
<path d="M7.51733 13.8186C7.51733 15.0229 6.52889 16 5.31022 16C4.09156 16 3.10311 15.0229 3.10311 13.8177M7.51733 13.8186C7.51733 12.6143 6.52889 11.6363 5.31022 11.6363C4.09156 11.6363 3.10311 12.6134 3.10311 13.8177M7.51733 13.8186L12.4827 13.8177M3.10311 13.8177H2V4.85714C2 4.62981 2.09365 4.4118 2.26035 4.25105C2.42705 4.09031 2.65314 4 2.88889 4H11.5938C11.8295 4 12.0556 4.09031 12.2223 4.25105C12.389 4.4118 12.4827 4.62981 12.4827 4.85714V6.72743M12.4827 13.8177H13.0347M12.4827 13.8177V6.72743M12.4827 6.72743H14.4924C14.7295 6.72745 14.9641 6.77319 15.1826 6.86195C15.401 6.95072 15.5989 7.08071 15.7644 7.24429L18 9.45486V13.8177H17.448M17.448 13.8177C17.448 15.0229 16.4604 16 15.2418 16C14.0231 16 13.0347 15.0229 13.0347 13.8177M17.448 13.8177C17.448 12.6134 16.4604 11.6363 15.2418 11.6363C14.0231 11.6363 13.0347 12.6134 13.0347 13.8177" stroke="#003562" stroke-width="1.25" stroke-linecap="round" stroke-linejoin="round"/>
</svg>
