<svg width="32" height="32" viewBox="0 0 32 32" fill="none" xmlns="http://www.w3.org/2000/svg">
<rect width="32" height="32" rx="5" fill="#DBEAFE"/>
<path d="M17.6665 8.5V11.8333C17.6665 12.0543 17.7543 12.2663 17.9106 12.4226C18.0669 12.5789 18.2788 12.6667 18.4998 12.6667H21.8332M17.6665 8.5H11.8332C11.3911 8.5 10.9672 8.67559 10.6547 8.98816C10.3421 9.30072 10.1665 9.72464 10.1665 10.1667V21.8333C10.1665 22.2754 10.3421 22.6993 10.6547 23.0118C10.9672 23.3244 11.3911 23.5 11.8332 23.5H20.1665C20.6085 23.5 21.0325 23.3244 21.345 23.0118C21.6576 22.6993 21.8332 22.2754 21.8332 21.8333V12.6667M17.6665 8.5L21.8332 12.6667M13.4998 20.1667H18.4998M13.4998 16.8333H18.4998" stroke="#2563EB" stroke-width="1.5" stroke-linecap="round" stroke-linejoin="round"/>
</svg>
