<svg width="20" height="20" viewBox="0 0 20 20" fill="none" xmlns="http://www.w3.org/2000/svg">
<path d="M19.0625 4.375V9.375C19.0625 9.62364 18.9637 9.8621 18.7879 10.0379C18.6121 10.2137 18.3736 10.3125 18.125 10.3125C17.8764 10.3125 17.6379 10.2137 17.4621 10.0379C17.2863 9.8621 17.1875 9.62364 17.1875 9.375V6.64062L11.2883 12.5406C11.2012 12.628 11.0977 12.6974 10.9837 12.7447C10.8698 12.792 10.7476 12.8164 10.6242 12.8164C10.5008 12.8164 10.3787 12.792 10.2647 12.7447C10.1507 12.6974 10.0473 12.628 9.96016 12.5406L7.5 10.0781L2.53828 15.0383C2.36216 15.2144 2.12329 15.3133 1.87422 15.3133C1.62515 15.3133 1.38628 15.2144 1.21016 15.0383C1.03404 14.8622 0.935093 14.6233 0.935093 14.3742C0.935093 14.1251 1.03404 13.8863 1.21016 13.7102L6.83516 8.08516C6.92225 7.99776 7.02575 7.92841 7.1397 7.88109C7.25366 7.83377 7.37583 7.80942 7.49922 7.80942C7.62261 7.80942 7.74478 7.83377 7.85874 7.88109C7.97269 7.92841 8.07618 7.99776 8.16328 8.08516L10.625 10.5469L15.8594 5.3125H13.125C12.8764 5.3125 12.6379 5.21373 12.4621 5.03791C12.2863 4.8621 12.1875 4.62364 12.1875 4.375C12.1875 4.12636 12.2863 3.8879 12.4621 3.71209C12.6379 3.53627 12.8764 3.4375 13.125 3.4375H18.125C18.3736 3.4375 18.6121 3.53627 18.7879 3.71209C18.9637 3.8879 19.0625 4.12636 19.0625 4.375Z" fill="#EAB308"/>
</svg>
