<svg width="12" height="12" viewBox="0 0 12 12" fill="none" xmlns="http://www.w3.org/2000/svg">
<path d="M3.5024 8.17118C3.64249 8.19453 3.78648 8.21788 3.93436 8.24123C4.30017 8.31127 4.66987 8.393 5.04345 8.48639C5.57271 8.61871 6.06693 8.76659 6.52614 8.93003C7.10209 9.13239 7.61188 9.35421 8.05552 9.59549C8.57699 9.87568 9.00506 10.1792 9.33973 10.5061H9.92346C10.0791 10.5061 10.2134 10.4497 10.3262 10.3368C10.4391 10.224 10.4955 10.0858 10.4955 9.92238V6.38495C10.7524 6.31491 10.9645 6.17676 11.1318 5.9705C11.2991 5.76425 11.3809 5.52492 11.377 5.25251C11.3731 4.9801 11.2894 4.74077 11.126 4.53452C10.9625 4.32827 10.7563 4.19012 10.5072 4.12007V0.582648C10.5072 0.419203 10.4488 0.281053 10.3321 0.168198C10.2153 0.0553427 10.0752 -0.00108528 9.91179 -0.00108528H9.33973C9.01284 0.325806 8.58477 0.629347 8.05552 0.909538C7.61188 1.15082 7.10209 1.37263 6.52614 1.57499C6.06693 1.73844 5.57271 1.88632 5.04345 2.01863C4.66987 2.11203 4.30017 2.19375 3.93436 2.2638L3.5024 2.33385H1.16747C0.949539 2.33385 0.75107 2.38638 0.572058 2.49146C0.393047 2.59653 0.252951 2.73857 0.151771 2.91758C0.0505902 3.09659 0 3.29117 0 3.50131V7.00371C0 7.21386 0.0505902 7.40843 0.151771 7.58745C0.252951 7.76646 0.393047 7.9085 0.572058 8.01357C0.75107 8.11864 0.945648 8.17118 1.15579 8.17118H1.7512L2.33493 11.0898H3.5024V8.17118ZM4.66987 3.30284C5.15242 3.20166 5.6233 3.08103 6.0825 2.94093C7.42119 2.55177 8.50305 2.07311 9.32806 1.50495V9.00008C8.50305 8.43191 7.42119 7.95325 6.0825 7.5641C5.6233 7.424 5.14853 7.30336 4.65819 7.20218V3.30284H4.66987ZM1.16747 3.50131H3.5024V7.00371H1.16747V3.50131Z" fill="white"/>
</svg>
