<svg width="14" height="14" viewBox="0 0 14 14" fill="none" xmlns="http://www.w3.org/2000/svg">
<g clip-path="url(#clip0_4811_3299)">
<path d="M7.89003 1.04795C7.80611 0.884144 7.67861 0.746679 7.52158 0.650689C7.36455 0.554698 7.18407 0.503906 7.00003 0.503906C6.81598 0.503906 6.6355 0.554698 6.47847 0.650689C6.32144 0.746679 6.19394 0.884144 6.11003 1.04795L0.610026 12.0479C0.533316 12.2001 0.496794 12.3694 0.503928 12.5398C0.511062 12.7101 0.561616 12.8757 0.650789 13.021C0.739961 13.1663 0.864792 13.2864 1.01343 13.3698C1.16206 13.4533 1.32956 13.4974 1.50003 13.4979H12.5C12.6705 13.4974 12.838 13.4533 12.9866 13.3698C13.1353 13.2864 13.2601 13.1663 13.3493 13.021C13.4384 12.8757 13.489 12.7101 13.4961 12.5398C13.5033 12.3694 13.4667 12.2001 13.39 12.0479L7.89003 1.04795Z" stroke="#BF0000" stroke-linecap="round" stroke-linejoin="round"/>
<path d="M7 5V8.25" stroke="#BF0000" stroke-linecap="round" stroke-linejoin="round"/>
<path d="M7 11C6.86193 11 6.75 10.8881 6.75 10.75C6.75 10.6119 6.86193 10.5 7 10.5" stroke="#BF0000" stroke-linecap="round" stroke-linejoin="round"/>
<path d="M7 11C7.13807 11 7.25 10.8881 7.25 10.75C7.25 10.6119 7.13807 10.5 7 10.5" stroke="#BF0000" stroke-linecap="round" stroke-linejoin="round"/>
</g>
<defs>
<clipPath id="clip0_4811_3299">
<rect width="14" height="14" fill="white"/>
</clipPath>
</defs>
</svg>
