<svg width="20" height="14" viewBox="0 0 20 14" fill="none" xmlns="http://www.w3.org/2000/svg">
<path d="M6.78571 0C6.12348 0.00258049 5.48913 0.261533 5.02086 0.720439C4.55259 1.17935 4.28835 1.80101 4.28571 2.45C4.28571 3.7954 5.41286 4.9 6.78571 4.9C8.15857 4.9 9.28571 3.7954 9.28571 2.45C9.28571 1.1046 8.15857 0 6.78571 0ZM13.2143 0C12.5521 0.00258049 11.9177 0.261533 11.4494 0.720439C10.9812 1.17935 10.7169 1.80101 10.7143 2.45C10.7143 3.7954 11.8414 4.9 13.2143 4.9C14.5871 4.9 15.7143 3.7954 15.7143 2.45C15.7143 1.1046 14.5871 0 13.2143 0ZM6.78571 1.4C7.38571 1.4 7.85714 1.862 7.85714 2.45C7.85714 3.038 7.38571 3.5 6.78571 3.5C6.18571 3.5 5.71429 3.038 5.71429 2.45C5.71429 1.862 6.18571 1.4 6.78571 1.4ZM13.2143 1.4C13.8143 1.4 14.2857 1.862 14.2857 2.45C14.2857 3.038 13.8143 3.5 13.2143 3.5C12.6143 3.5 12.1429 3.038 12.1429 2.45C12.1429 1.862 12.6143 1.4 13.2143 1.4ZM3.57143 4.2C2 4.2 0.714286 5.46 0.714286 7C0.714286 7.7791 1.055 8.4819 1.585 8.9908C1.09898 9.3125 0.70052 9.74571 0.424282 10.2527C0.148045 10.7598 0.00239452 11.3252 0 11.9H1.42857C1.42857 10.7324 2.38 9.8 3.57143 9.8C4.76286 9.8 5.71429 10.7324 5.71429 11.9H7.14286C7.14046 11.3252 6.99481 10.7598 6.71858 10.2527C6.44234 9.74571 6.04388 9.3125 5.55786 8.9908C6.08786 8.4819 6.42857 7.7798 6.42857 7C6.42857 5.46 5.14286 4.2 3.57143 4.2ZM7.14286 11.9C6.69643 12.4852 6.42857 13.2209 6.42857 14H7.85714C7.85714 12.8324 8.80857 11.9 10 11.9C11.1914 11.9 12.1429 12.8324 12.1429 14H13.5714C13.5704 13.2429 13.3199 12.5063 12.8571 11.9C12.6143 11.5829 12.3214 11.312 11.9864 11.0908C12.5164 10.5819 12.8571 9.8798 12.8571 9.1C12.8571 7.56 11.5714 6.3 10 6.3C8.42857 6.3 7.14286 7.56 7.14286 9.1C7.14286 9.8791 7.48357 10.5819 8.01357 11.0908C7.67884 11.3105 7.38445 11.5841 7.14286 11.9ZM12.8571 11.9H14.2857C14.2857 10.7324 15.2371 9.8 16.4286 9.8C17.62 9.8 18.5714 10.7324 18.5714 11.9H20C19.9976 11.3252 19.852 10.7598 19.5757 10.2527C19.2995 9.74571 18.901 9.3125 18.415 8.9908C18.945 8.4819 19.2857 7.7798 19.2857 7C19.2857 5.46 18 4.2 16.4286 4.2C14.8571 4.2 13.5714 5.46 13.5714 7C13.5714 7.7791 13.9121 8.4819 14.4421 8.9908C13.9561 9.3125 13.5577 9.74571 13.2814 10.2527C13.0052 10.7598 12.8595 11.3252 12.8571 11.9ZM3.57143 5.6C4.36929 5.6 5 6.2181 5 7C5 7.7819 4.36929 8.4 3.57143 8.4C2.77357 8.4 2.14286 7.7819 2.14286 7C2.14286 6.2181 2.77357 5.6 3.57143 5.6ZM16.4286 5.6C17.2264 5.6 17.8571 6.2181 17.8571 7C17.8571 7.7819 17.2264 8.4 16.4286 8.4C15.6307 8.4 15 7.7819 15 7C15 6.2181 15.6307 5.6 16.4286 5.6ZM10 7.7C10.7979 7.7 11.4286 8.3181 11.4286 9.1C11.4286 9.8819 10.7979 10.5 10 10.5C9.20214 10.5 8.57143 9.8819 8.57143 9.1C8.57143 8.3181 9.20214 7.7 10 7.7Z" fill="#1D51A4"/>
</svg>
