<svg width="26" height="26" viewBox="0 0 26 26" fill="none" xmlns="http://www.w3.org/2000/svg">
<path d="M2.16675 20.5833V9.75C2.16675 9.17536 2.39502 8.62426 2.80135 8.21794C3.20768 7.81161 3.75878 7.58333 4.33341 7.58333H4.87508C5.21145 7.58333 5.54319 7.50502 5.84404 7.35459C6.1449 7.20417 6.4066 6.98576 6.60841 6.71667L9.01341 3.51C9.07396 3.42927 9.15247 3.36375 9.24273 3.31862C9.33298 3.27349 9.43251 3.25 9.53341 3.25H16.4667C16.5677 3.25 16.6672 3.27349 16.7574 3.31862C16.8477 3.36375 16.9262 3.42927 16.9867 3.51L19.3917 6.71667C19.5936 6.98576 19.8553 7.20417 20.1561 7.35459C20.457 7.50502 20.7887 7.58333 21.1251 7.58333H21.6667C22.2414 7.58333 22.7925 7.81161 23.1988 8.21794C23.6051 8.62426 23.8334 9.17536 23.8334 9.75V20.5833C23.8334 21.158 23.6051 21.7091 23.1988 22.1154C22.7925 22.5217 22.2414 22.75 21.6667 22.75H4.33341C3.75878 22.75 3.20768 22.5217 2.80135 22.1154C2.39502 21.7091 2.16675 21.158 2.16675 20.5833Z" stroke="#111827" stroke-opacity="0.5" stroke-width="1.25" stroke-linecap="round" stroke-linejoin="round"/>
<path d="M13.0001 18.4167C14.1494 18.4167 15.2516 17.9601 16.0642 17.1475C16.8769 16.3348 17.3334 15.2326 17.3334 14.0833C17.3334 12.9341 16.8769 11.8319 16.0642 11.0192C15.2516 10.2065 14.1494 9.75 13.0001 9.75C11.8508 9.75 10.7486 10.2065 9.93595 11.0192C9.12329 11.8319 8.66675 12.9341 8.66675 14.0833C8.66675 15.2326 9.12329 16.3348 9.93595 17.1475C10.7486 17.9601 11.8508 18.4167 13.0001 18.4167Z" stroke="#111827" stroke-opacity="0.5" stroke-width="1.25" stroke-linecap="round" stroke-linejoin="round"/>
</svg>
